# xmcd
#
# Track frame offsets:
#	340
#	20480
#	39485
#	60490
#	86852
#	106427
#	125795
#	143980
#	161660
#
# Disc length: 2427 seconds
#
# Revision: 14
# Processed by: cddbd v1.5.2PL0 Copyright (c) Steve Scherf et al.
# Submitted via: EasyCDDAExtractor 15.3.0.1
#
DISCID=7f097709
DTITLE=Madonna - True Blue
DYEAR=1986
DGENRE=Pop
TTITLE0=Papa Don't Preach
TTITLE1=Open Your Heart
TTITLE2=White Heat
TTITLE3=Live To Tell
TTITLE4=Where's The Party
TTITLE5=True Blue
TTITLE6=La Isla Bonita
TTITLE7=Jimmy Jimmy
TTITLE8=Love Makes The World Go Round
EXTD=
EXTT0=
EXTT1=
EXTT2=
EXTT3=
EXTT4=
EXTT5=
EXTT6=
EXTT7=
EXTT8=
PLAYORDER=
